<?xml version="1.0" encoding="utf-8"?>
<!-- Generator: Adobe Illustrator 16.2.0, SVG Export Plug-In . SVG Version: 6.00 Build 0)  -->
<!DOCTYPE svg PUBLIC "-//W3C//DTD SVG 1.1//EN" "http://www.w3.org/Graphics/SVG/1.1/DTD/svg11.dtd" [
	<!ENTITY ns_extend "http://ns.adobe.com/Extensibility/1.0/">
	<!ENTITY ns_ai "http://ns.adobe.com/AdobeIllustrator/10.0/">
	<!ENTITY ns_graphs "http://ns.adobe.com/Graphs/1.0/">
	<!ENTITY ns_vars "http://ns.adobe.com/Variables/1.0/">
	<!ENTITY ns_imrep "http://ns.adobe.com/ImageReplacement/1.0/">
	<!ENTITY ns_sfw "http://ns.adobe.com/SaveForWeb/1.0/">
	<!ENTITY ns_custom "http://ns.adobe.com/GenericCustomNamespace/1.0/">
	<!ENTITY ns_adobe_xpath "http://ns.adobe.com/XPath/1.0/">
]>
<svg version="1.1" id="Warstwa_1" xmlns:x="&ns_extend;" xmlns:i="&ns_ai;" xmlns:graph="&ns_graphs;"
	 xmlns="http://www.w3.org/2000/svg" xmlns:xlink="http://www.w3.org/1999/xlink" x="0px" y="0px" width="96px" height="74px"
	 viewBox="0 0 96 74" enable-background="new 0 0 96 74" xml:space="preserve">
<metadata>
	<sfw  xmlns="&ns_sfw;">
		<slices></slices>
		<sliceSourceBounds  height="74" width="96" x="0" y="0" bottomLeftOrigin="true"></sliceSourceBounds>
	</sfw>
</metadata>
<path fill="#FFFFFF" d="M35.949,32.787c-1.516-1.797-3.479-3.23-5.891-4.297c-2.412-1.065-5.35-1.6-8.813-1.6
	c-2.66,0-5.258,0.427-7.793,1.28c-2.537,0.854-4.81,2.194-6.819,4.023c-2.011,1.829-3.618,4.13-4.824,6.903
	C0.603,41.87,0,45.175,0,49.016c0,4.694,0.68,8.581,2.041,11.658c1.36,3.078,3.139,5.531,5.334,7.36
	c2.195,1.829,4.699,3.108,7.515,3.84c2.813,0.731,5.673,1.097,8.582,1.097c3.215,0,6.014-0.351,8.396-1.051
	c2.38-0.7,4.221-1.539,5.52-2.515c1.545-1.097,2.319-2.316,2.319-3.657c0-0.914-0.404-2.087-1.21-3.52
	c-0.807-1.432-1.583-2.606-2.326-3.521c-0.56,0.489-1.18,1.022-1.863,1.601c-0.683,0.58-1.491,1.113-2.421,1.6
	c-0.931,0.489-1.986,0.9-3.165,1.234c-1.18,0.336-2.545,0.503-4.096,0.503c-4.034,0-6.983-1.111-8.844-3.337
	c-1.861-2.225-2.917-5.013-3.165-8.366h27.368c0.061-0.304,0.107-0.716,0.139-1.234c0.03-0.517,0.061-1.051,0.093-1.6
	c0.03-0.548,0.046-1.065,0.046-1.554c0-0.487,0-0.914,0-1.28c0-2.56-0.341-4.997-1.021-7.314
	C38.561,36.642,37.463,34.585,35.949,32.787z M12.524,45.084c0-3.108,0.761-5.531,2.286-7.269c1.524-1.737,3.561-2.605,6.111-2.605
	c2.985,0,5.054,0.915,6.205,2.743s1.726,4.206,1.726,7.131H12.524z"/>
<path fill="#FFFFFF" d="M95.532,15.813c-0.312-0.704-0.702-1.287-1.169-1.748c-0.468-0.461-0.962-0.827-1.482-1.096
	c-0.521-0.269-0.988-0.48-1.404-0.634c0.337-0.154,0.734-0.377,1.189-0.673c0.455-0.294,0.89-0.678,1.306-1.153
	c0.416-0.474,0.76-1.043,1.033-1.709s0.409-1.447,0.409-2.345c0-0.922-0.162-1.773-0.487-2.556c-0.326-0.781-0.826-1.46-1.501-2.037
	C92.75,1.287,91.892,0.833,90.853,0.5C89.813,0.167,88.565,0,87.109,0c-1.04,0-1.969,0.077-2.788,0.23
	c-0.819,0.154-1.547,0.346-2.184,0.577C81.5,1.038,80.955,1.281,80.5,1.537c-0.455,0.257-0.813,0.487-1.073,0.692
	c-0.233,0.205-0.455,0.429-0.663,0.672c-0.208,0.244-0.312,0.544-0.312,0.903s0.168,0.82,0.507,1.383
	c0.337,0.564,0.767,1.076,1.287,1.537c0.39-0.308,0.799-0.608,1.229-0.903c0.429-0.294,0.89-0.563,1.384-0.807
	c0.494-0.243,1.02-0.442,1.579-0.596c0.559-0.154,1.176-0.23,1.852-0.23c1.196,0,2.112,0.237,2.749,0.711
	c0.637,0.474,0.956,1.224,0.956,2.248c0,0.692-0.137,1.262-0.41,1.71c-0.273,0.449-0.604,0.795-0.994,1.038
	c-0.39,0.244-0.806,0.417-1.248,0.519c-0.443,0.103-0.833,0.154-1.17,0.154h-1.989v3.881h1.989c0.337,0,0.76,0.039,1.267,0.116
	c0.507,0.077,0.994,0.244,1.462,0.5c0.468,0.256,0.871,0.641,1.208,1.153c0.337,0.513,0.507,1.191,0.507,2.037
	c0,0.743-0.124,1.371-0.37,1.882c-0.248,0.513-0.572,0.936-0.975,1.269c-0.403,0.333-0.864,0.57-1.384,0.711
	c-0.52,0.141-1.066,0.211-1.637,0.211c-0.755,0-1.457-0.09-2.105-0.269c-0.65-0.179-1.248-0.404-1.794-0.673
	s-1.033-0.57-1.462-0.903c-0.429-0.333-0.787-0.64-1.072-0.922c-1.066,1.537-1.599,2.677-1.599,3.42c0,0.333,0.104,0.653,0.312,0.96
	c0.208,0.308,0.493,0.563,0.858,0.769c0.259,0.153,0.591,0.333,0.994,0.538c0.403,0.205,0.896,0.397,1.482,0.577
	c0.585,0.179,1.267,0.326,2.047,0.441c0.78,0.116,1.677,0.173,2.691,0.173c1.585,0,2.969-0.198,4.152-0.595
	c1.183-0.397,2.164-0.954,2.944-1.672c0.78-0.717,1.358-1.569,1.735-2.555C95.811,20.631,96,19.561,96,18.408
	C96,17.383,95.844,16.519,95.532,15.813z"/>
<path fill="#FFFFFF" d="M85.801,30.798c-0.805-0.517-1.702-0.868-2.69-1.051c-0.99-0.183-1.98-0.274-2.969-0.274
	c-0.99,0-1.948,0.046-2.876,0.137c-0.928,0.092-1.392,0.169-1.392,0.229v36.572c0,1.524,0.2,2.774,0.603,3.749
	c0.401,0.976,0.958,1.753,1.669,2.332c0.71,0.58,1.562,0.974,2.552,1.189C81.687,73.893,82.8,74,84.038,74
	c0.989,0,1.917-0.032,2.783-0.092c0.866-0.061,1.422-0.152,1.67-0.274V36.696c0-1.523-0.248-2.758-0.743-3.704
	C87.253,32.049,86.604,31.317,85.801,30.798z"/>
<path fill="#FFFFFF" d="M76.654,14.295c0-1.523-0.774-2.803-2.319-3.84c-1.484-0.974-3.356-1.706-5.613-2.194
	c-2.258-0.487-4.499-0.731-6.726-0.731c-5.891,0-10.439,1.541-13.649,4.618c-1.204,1.154-2.181,2.508-2.933,4.061
	c-1.253,2.589-1.88,5.73-1.88,9.425v47.453h12.617l0,0l0,0V38.982h14.843v0h0v-9.417H56.152v-4.297c0-1.829,0.272-3.324,0.815-4.486
	c0.326-0.697,0.75-1.274,1.272-1.731c1.392-1.219,3.261-1.829,5.612-1.829c1.979,0,3.757,0.336,5.334,1.005
	c1.577,0.672,2.891,1.524,3.943,2.56c0.865-1.036,1.67-2.163,2.412-3.383c0.186-0.305,0.348-0.598,0.487-0.88
	C76.446,15.679,76.654,14.936,76.654,14.295z"/>
</svg>
